<svg width="450" height="450" xmlns="http://www.w3.org/2000/svg"><path fill="#d50000" d="M0 0h450v450H0z"/><path d="M126.8 270q29.2 0 44.9 11.1t15.7 33.1q0 12-4.3 20.5t-12.4 13.8q-8.1 5.3-19.7 7.7-11.6 2.4-26.2 2.4h-15.4V410H90V273.4q8.2-2 18.3-2.7 10.1-.7 18.5-.7zm1.6 17q-12.4 0-19 .6V342H124q10 0 18-1.3t13.5-4.4q5.5-3.1 8.5-8.5t3-13.8q0-8-3.1-13.2-3.1-5.2-8.4-8.3-5.3-3.1-12.3-4.3-7-1.2-14.8-1.2zm197 53.6q0 18-5.6 31.3t-15.8 22q-10.2 8.7-24.4 13-14.2 4.3-31.2 4.3-8.4 0-18.5-.7t-18.3-2.7V273.4q8.2-2 18.3-2.7 10.1-.7 18.5-.7 17 0 31.2 4.3t24.4 13q10.2 8.7 15.8 22 5.6 13.3 5.6 31.3zM250 394.2q27.6 0 41.2-14.1 13.6-14.1 13.6-39.5t-13.6-39.5Q277.6 287 250 287q-8.2 0-12.7.2t-6.3.4v106q1.8.2 6.3.4t12.7.2zM373.6 410h-19.4V271.4h83.6V288h-64.2v41.8h57v16.4h-57V410z" fill="#fff"/></svg>