<svg width="864" height="450" xmlns="http://www.w3.org/2000/svg"><rect width="430" height="430" x="35" y="10" rx="35" ry="35" fill="transparent" stroke="#fff" stroke-width="25"/><path d="M116.6 250q31 0 47.6 10.9t16.6 35.7q0 25-16.8 36.1-16.8 11.1-48 11.1h-9.8v46.4H75V253.6q10.2-2 21.6-2.8 11.4-.8 20-.8zm2 26.6q-3.4 0-6.7.2-3.3.2-5.7.4v40h9.8q16.2 0 24.4-4.4t8.2-16.4q0-5.8-2.1-9.6t-6-6.1q-3.9-2.3-9.5-3.2-5.6-.9-12.4-.9zm116.4.6v87.6q2.2.2 5.1.3 2.9.1 6.9.1 23.4 0 34.7-11.8 11.3-11.8 11.3-32.6 0-21.8-10.8-33T248 276.6q-3.2 0-6.6.1-3.4.1-6.4.5zm90.2 43.6q0 18-5.6 31.4-5.6 13.4-15.9 22.2-10.3 8.8-25.1 13.2-14.8 4.4-33.2 4.4-8.4 0-19.6-.7-11.2-.7-22-2.9v-135q10.8-2 22.5-2.7 11.7-.7 20.1-.7 17.8 0 32.3 4 14.5 4 24.9 12.6 10.4 8.6 16 22t5.6 32.2zm57.2 69.4h-31.2V251.6H444v26.2h-61.6v29h54.8V333h-54.8v57.2zM500 344v-27h58v27h-58zm110.2 19.4h61.4v26.8H579V251.6h31.2v111.8zm81.4 26.8V251.6h31.2v138.6h-31.2zM801 392q-11.4 0-22.7-.7-11.3-.7-23.5-3.3V253.6q9.6-1.8 21-2.7 11.4-.9 21.2-.9 13.2 0 24.3 1.9 11.1 1.9 19.1 6.5 8 4.6 12.5 12.1t4.5 18.5q0 16.6-16 26.2 13.2 5 18 13.6 4.8 8.6 4.8 19.4 0 21.8-15.9 32.8-15.9 11-47.3 11zm3.8-62.2h-19.6v35.8q3.4.4 7.4.6 4 .2 8.8.2 14 0 22.6-4 8.6-4 8.6-14.8 0-9.6-7.2-13.7t-20.6-4.1zm-19.6-54V306h15.2q14.4 0 20.6-3.7 6.2-3.7 6.2-11.9 0-8.4-6.4-11.8-6.4-3.4-18.8-3.4-4 0-8.6.1t-8.2.5z" fill="#fff"/></svg>