<svg width="802" height="450" xmlns="http://www.w3.org/2000/svg"><path fill="#d50000" d="M0 0h450v450H0z"/><path d="M126.8 270q29.2 0 44.9 11.1t15.7 33.1q0 12-4.3 20.5t-12.4 13.8q-8.1 5.3-19.7 7.7-11.6 2.4-26.2 2.4h-15.4V410H90V273.4q8.2-2 18.3-2.7 10.1-.7 18.5-.7zm1.6 17q-12.4 0-19 .6V342H124q10 0 18-1.3t13.5-4.4q5.5-3.1 8.5-8.5t3-13.8q0-8-3.1-13.2-3.1-5.2-8.4-8.3-5.3-3.1-12.3-4.3-7-1.2-14.8-1.2zm197 53.6q0 18-5.6 31.3t-15.8 22q-10.2 8.7-24.4 13-14.2 4.3-31.2 4.3-8.4 0-18.5-.7t-18.3-2.7V273.4q8.2-2 18.3-2.7 10.1-.7 18.5-.7 17 0 31.2 4.3t24.4 13q10.2 8.7 15.8 22 5.6 13.3 5.6 31.3zM250 394.2q27.6 0 41.2-14.1 13.6-14.1 13.6-39.5t-13.6-39.5Q277.6 287 250 287q-8.2 0-12.7.2t-6.3.4v106q1.8.2 6.3.4t12.7.2zM373.6 410h-19.4V271.4h83.6V288h-64.2v41.8h57v16.4h-57V410z" fill="#fff"/><path d="M470 358.8v-17.4h49.4v17.4H470zm91.2 34.4h64V410h-83.4V271.4h19.4v121.8zm84.4 16.8V271.4H665V410h-19.4zm91.2 1.2q-4.2 0-9.1-.2-4.9-.2-9.8-.6-4.9-.4-9.7-1-4.8-.6-8.8-1.6V273.4q4-1 8.8-1.6 4.8-.6 9.7-1 4.9-.4 9.7-.6 4.8-.2 9-.2 12 0 22.5 1.8t18.2 6.1q7.7 4.3 12.1 11.3 4.4 7 4.4 17.2 0 11.4-5.4 18.7-5.4 7.3-14.4 10.9 12.2 3.6 19.4 11.4 7.2 7.8 7.2 22 0 20.8-15.3 31.3t-48.5 10.5zm6.8-65.8h-25v48.8q2.2.2 5.2.4 2.6.2 6.1.3 3.5.1 8.1.1 8.6 0 16.3-1.1 7.7-1.1 13.5-3.9t9.3-7.8q3.5-5 3.5-12.6 0-6.8-2.6-11.5t-7.5-7.5q-4.9-2.8-11.7-4-6.8-1.2-15.2-1.2zm-25-58.4v42.8H739q7.2 0 13.6-1 6.4-1 11.1-3.6 4.7-2.6 7.4-6.8 2.7-4.2 2.7-10.6 0-6-2.8-10.1t-7.7-6.6q-4.9-2.5-11.5-3.7-6.6-1.2-14-1.2t-11.6.2q-4.2.2-7.6.6z" fill="#333"/></svg>